<svg id="Layer_1" viewBox="0 0 24 24" xmlns="http://www.w3.org/2000/svg"><path d="m12 13c-2.74-2.21-5.9-.11-6-.09v-7.9c2.08-1.47 4.53-1.19 6 0 2.74 2.21 5.9.12 6 .1v7.91c-2.1 1.48-4.54 1.16-6-.01z" fill="#ff3446"/><path d="m6 20.5c-.28 0-.5-.22-.5-.5v-16c0-.28.22-.5.5-.5s.5.22.5.5v16c0 .28-.22.5-.5.5z"/><path d="m11.69 13.39c-1.48-1.19-3.89-1.19-5.37 0-.22.17-.53.14-.7-.08s-.14-.53.08-.7c1.83-1.47 4.8-1.47 6.63 0 1.42 1.14 3.7 1.19 5.19.14v-6.84c-1.81.92-4.24.75-5.81-.52-1.48-1.19-3.89-1.19-5.37 0-.22.17-.53.14-.7-.08s-.14-.53.08-.7c1.83-1.47 4.8-1.47 6.63 0 1.48 1.19 3.89 1.19 5.37 0 .32-.26.81-.03.81.39v8c0 .15-.07.29-.19.39-1.83 1.47-4.8 1.47-6.63 0z"/></svg>