<svg id="Capa_1" enable-background="new 0 0 512.009 512.009" height="512" viewBox="0 0 512.009 512.009" width="512" xmlns="http://www.w3.org/2000/svg"><g><g><g><g><path d="m260.586 417.642c-3.839 0-7.678 1.464-10.606 4.394l-20.677 20.677c-5.858 5.858-5.858 15.355 0 21.213 5.857 5.858 15.355 5.858 21.213 0l20.677-20.677c5.858-5.858 5.858-15.355 0-21.213-2.929-2.93-6.768-4.394-10.607-4.394z" fill="#caf3ff"/></g><g><path d="m373.987 417.642c-3.839 0-7.678 1.464-10.606 4.394-5.858 5.858-5.858 15.355 0 21.213l20.677 20.677c5.857 5.858 15.355 5.858 21.213 0s5.858-15.355 0-21.213l-20.677-20.677c-2.93-2.93-6.768-4.394-10.607-4.394z" fill="#26dfff"/></g><g><path d="m317.286 452.767c-8.284 0-15 6.716-15 15v29.242c0 8.284 6.716 15 15 15s15-6.716 15-15v-29.242c0-8.284-6.715-15-15-15z" fill="#79e8ff"/></g></g><g><g><path d="m457.903 125.876-162.267 20-182.411-20 38.122-60.592 42.804-28.754c35.448-23.813 77.184-36.53 119.888-36.53h126.368l.487.121c17.363 0 31.439 14.076 31.439 31.439 0 17.363-14.076 31.439-31.439 31.439h17.01c17.363 0 31.439 14.076 31.439 31.439-.001 17.362-14.076 31.438-31.44 31.438z" fill="#ffd9b1"/><path d="m469.598 125.876c17.363 0 31.439 14.076 31.439 31.439 0 17.363-14.076 31.439-31.439 31.439h10.631c17.363 0 31.439 14.076 31.439 31.439 0 17.363-14.076 31.439-31.439 31.439h-137.958l-6.545 15 13.455 15 9.651 41.906c6.949 29.946-8.401 59.768-35.053 72.257-7.422 3.478-16.267.173-19.776-7.234l-32.008-67.571c-11.325-23.908-28.824-44.362-50.69-59.251l-69.958-47.634-50-69.349 11.878-18.879h356.373z" fill="#ffbb96"/></g><g><path d="m342.271 251.632h-30.366c-8.284 0-15 6.716-15 15s6.716 15 15 15h37.275z" fill="#ff967d"/></g></g></g><g><g><path d="m151.998 28.184c0-15.557-12.612-28.169-28.169-28.169h-108.488c-8.284 0-15 6.716-15 15v110.861l71.534 30 80.123-30z" fill="#8379c2"/><path d="m.341 125.876v110.876c0 8.284 6.716 15 15 15h108.488c15.557 0 28.169-12.612 28.169-28.169v-97.707z" fill="#6e61b7"/></g><g><path d="m76.891 206.372c-11.192.103-18.598-12.236-13.23-22.06 5.814-11.104 22.364-10.29 27.08 1.32 4.156 9.659-3.335 20.878-13.85 20.74z" fill="#fff5f5"/></g></g></g></svg>